<svg width="600" height="600" viewBox="0 0 600 600" fill="none" xmlns="http://www.w3.org/2000/svg">
<path fill-rule="evenodd" clip-rule="evenodd" d="M209.27 123.136C200.363 120.806 189.718 122.308 180.321 127.376C170.942 132.434 162.761 140.858 156.658 151.258C148 166.013 144.033 183.753 145.163 201.316C146.293 218.876 152.444 236.341 162.468 251.482C182.472 281.698 217.645 301.952 255.649 308.515C304.781 317.001 357.617 302.902 395.89 271.131C434.156 239.364 457.547 190.2 458.027 140.652L499 141.051C498.402 202.735 469.548 263.304 422.03 302.75C374.518 342.192 309.583 359.496 248.69 348.979C201.841 340.888 155.731 315.581 128.323 274.181C114.641 253.514 105.897 229.205 104.273 203.958C102.649 178.715 108.266 152.721 121.337 130.445L138.998 140.851L121.337 130.445C130.48 114.865 143.715 100.488 160.903 91.2192C178.071 81.9608 199.31 78.0943 219.621 83.4079C232.128 86.68 243.692 93.2878 252.856 102.417C262.021 111.547 268.678 123.091 271.978 135.608L232.362 146.095C230.927 140.653 227.983 135.536 223.968 131.537C219.953 127.537 214.791 124.581 209.27 123.136Z" fill="white"/>
<path d="M73.9698 397.93C80.356 397.93 86.0545 399.256 91.0652 401.907C96.1741 404.558 100.153 408.486 103.002 413.69C105.852 418.894 107.276 425.178 107.276 432.543V480.411H90.6231V435.047C90.6231 427.78 88.8055 422.233 85.1702 418.403C81.535 414.475 76.5734 412.512 70.2855 412.512C63.9976 412.512 58.9869 414.475 55.2534 418.403C51.6182 422.233 49.8006 427.78 49.8006 435.047V480.411H33V399.256H49.8006V408.535C52.5516 405.196 56.0394 402.594 60.2641 400.729C64.5871 398.863 69.1556 397.93 73.9698 397.93Z" fill="white"/>
<path d="M201.804 399.256L151.991 518.558H134.601L151.107 479.085L119.127 399.256H137.844L160.687 461.116L184.414 399.256H201.804Z" fill="white"/>
<path d="M208.882 439.465C208.882 431.315 210.553 424.098 213.893 417.814C217.332 411.53 221.949 406.669 227.746 403.233C233.641 399.698 240.175 397.93 247.347 397.93C253.635 397.93 259.186 399.207 264 401.76C268.912 404.313 272.695 407.406 275.348 411.039V399.256H292.296V519H275.348V468.628C272.695 472.261 268.863 475.354 263.853 477.907C258.842 480.46 253.143 481.736 246.757 481.736C239.782 481.736 233.395 479.969 227.599 476.434C221.9 472.801 217.332 467.793 213.893 461.411C210.553 454.93 208.882 447.615 208.882 439.465ZM275.348 439.76C275.348 434.163 274.169 429.302 271.811 425.178C269.551 421.054 266.554 417.912 262.821 415.752C259.088 413.592 255.059 412.512 250.736 412.512C246.413 412.512 242.385 413.592 238.652 415.752C234.918 417.814 231.873 420.907 229.515 425.031C227.255 429.057 226.125 433.868 226.125 439.465C226.125 445.062 227.255 449.972 229.515 454.194C231.873 458.416 234.918 461.656 238.652 463.915C242.483 466.075 246.512 467.155 250.736 467.155C255.059 467.155 259.088 466.075 262.821 463.915C266.554 461.755 269.551 458.612 271.811 454.488C274.169 450.266 275.348 445.357 275.348 439.76Z" fill="white"/>
<path d="M387.902 399.256V480.411H371.101V470.837C368.449 474.176 364.961 476.827 360.638 478.791C356.413 480.656 351.894 481.589 347.08 481.589C340.693 481.589 334.946 480.264 329.837 477.612C324.826 474.961 320.847 471.034 317.9 465.829C315.05 460.625 313.626 454.341 313.626 446.977V399.256H330.279V444.473C330.279 451.739 332.097 457.336 335.732 461.264C339.367 465.093 344.329 467.008 350.616 467.008C356.904 467.008 361.866 465.093 365.501 461.264C369.235 457.336 371.101 451.739 371.101 444.473V399.256H387.902Z" fill="white"/>
<path d="M418.617 388.504C415.571 388.504 413.017 387.473 410.953 385.411C408.89 383.349 407.858 380.796 407.858 377.752C407.858 374.708 408.89 372.155 410.953 370.093C413.017 368.031 415.571 367 418.617 367C421.564 367 424.07 368.031 426.133 370.093C428.196 372.155 429.228 374.708 429.228 377.752C429.228 380.796 428.196 383.349 426.133 385.411C424.07 387.473 421.564 388.504 418.617 388.504ZM426.87 399.256V480.411H410.069V399.256H426.87Z" fill="white"/>
<path d="M478.402 481.736C472.016 481.736 466.268 480.607 461.159 478.349C456.149 475.992 452.17 472.85 449.222 468.922C446.275 464.897 444.703 460.429 444.506 455.519H461.896C462.191 458.956 463.812 461.853 466.76 464.209C469.805 466.468 473.588 467.597 478.107 467.597C482.823 467.597 486.458 466.713 489.013 464.946C491.666 463.08 492.992 460.724 492.992 457.876C492.992 454.832 491.518 452.574 488.571 451.101C485.722 449.628 481.153 448.008 474.865 446.24C468.774 444.571 463.812 442.951 459.98 441.38C456.149 439.809 452.808 437.403 449.959 434.163C447.208 430.922 445.832 426.651 445.832 421.349C445.832 417.028 447.11 413.101 449.664 409.566C452.219 405.933 455.854 403.085 460.57 401.023C465.384 398.961 470.886 397.93 477.076 397.93C486.311 397.93 493.729 400.287 499.329 405C505.028 409.615 508.073 415.948 508.466 424H491.666C491.371 420.367 489.897 417.47 487.244 415.31C484.592 413.15 481.006 412.07 476.486 412.07C472.065 412.07 468.675 412.904 466.317 414.574C463.959 416.243 462.78 418.452 462.78 421.202C462.78 423.362 463.566 425.178 465.138 426.651C466.71 428.124 468.626 429.302 470.886 430.186C473.146 430.972 476.486 432.003 480.907 433.279C486.802 434.85 491.617 436.47 495.35 438.14C499.182 439.711 502.473 442.067 505.224 445.209C507.975 448.351 509.4 452.525 509.498 457.729C509.498 462.344 508.221 466.468 505.666 470.101C503.112 473.734 499.476 476.581 494.76 478.643C490.143 480.705 484.69 481.736 478.402 481.736Z" fill="white"/>
<path d="M547.252 412.953V457.876C547.252 460.92 547.94 463.129 549.315 464.504C550.789 465.78 553.245 466.419 556.684 466.419H567V480.411H553.736C546.171 480.411 540.375 478.643 536.346 475.109C532.318 471.574 530.304 465.829 530.304 457.876V412.953H520.725V399.256H530.304V379.078H547.252V399.256H567V412.953H547.252Z" fill="white"/>
</svg>
